# xmcd
#
# Track frame offsets:
#	150
#	17811
#	35793
#	56383
#	76222
#	95534
#	114772
#	128620
#	147874
#	170777
#	189856
#	210167
#	229326
#	239822
#
# Disc length: 3437 seconds
#
# Revision: 0
# Processed by: cddbd v1.5.1PL0 Copyright (c) Steve Scherf et al.
# Submitted via: audiograbber 1.83.01
#
DISCID=b60d6b0e
DTITLE=candan erçetin - melek
DYEAR=2004
DGENRE=House
TTITLE0=candan erçetin
TTITLE1=candan erçetin
TTITLE2=candan erçetin
TTITLE3=candan erçetin
TTITLE4=candan erçetin
TTITLE5=candan erçetin
TTITLE6=candan erçetin
TTITLE7=candan erçetin
TTITLE8=candan erçetin
TTITLE9=candan erçetin
TTITLE10=candan erçetin
TTITLE11=candan erçetin
TTITLE12=candan erçetin
TTITLE13=candan erçetin
EXTD=
EXTT0=
EXTT1=
EXTT2=
EXTT3=
EXTT4=
EXTT5=
EXTT6=
EXTT7=
EXTT8=
EXTT9=
EXTT10=
EXTT11=
EXTT12=
EXTT13=
PLAYORDER=
